# xmcd
#
# Track frame offsets: 
#        150
#        18645
#        33561
#        50701
#        69864
#        88646
#        105283
#        120897
#        137265
#        158210
#        176103
#        197497
#        216065
#        235182
#        261884
#
# Disc length: 4440 seconds
#
# Revision: 0
# Processed by: cddbd v1.5.2PL0 Copyright (c) Steve Scherf et al.
# Submitted via: ExactAudioCopy v0.95b3
#
DISCID=c111560f
DTITLE=Faith Evans - The First Lady
DYEAR=2005
DGENRE=R&B
TTITLE0=Goin' Out (Feat. Pharrell, Pusha T)
TTITLE1=Again
TTITLE2=I Don't Need It
TTITLE3=Stop N Go
TTITLE4=Mesmerized
TTITLE5=Tru Love
TTITLE6=Jealous
TTITLE7=Ever Wonder (Feat. Mario Winans)
TTITLE8=Catching Feelings
TTITLE9=Get Over You
TTITLE10=Until You Came
TTITLE11=Lucky Day
TTITLE12=Hop (Twista Feat. Faith)
TTITLE13=Mesmerized (Freemasons Radio Edit)
TTITLE14=Copy Control
EXTD=
EXTT0=
EXTT1=
EXTT2=
EXTT3=
EXTT4=
EXTT5=
EXTT6=
EXTT7=
EXTT8=
EXTT9=
EXTT10=
EXTT11=
EXTT12=
EXTT13=
EXTT14=
PLAYORDER=
